<svg xmlns="http://www.w3.org/2000/svg" viewBox="0 0 400 250" fill="none">
  <rect width="400" height="250" fill="#1A1A1A"/>
  <rect x="20" y="20" width="360" height="210" fill="#2A2A2A" rx="8"/>

  <!-- Ticker tape bar -->
  <rect x="30" y="28" width="340" height="14" fill="#1A1A1A" rx="3"/>
  <rect x="40" y="32" width="24" height="6" fill="#4A5568" rx="2"/>
  <rect x="72" y="32" width="24" height="6" fill="#E63946" rx="2"/>
  <rect x="104" y="32" width="24" height="6" fill="#4A5568" rx="2"/>
  <rect x="136" y="32" width="24" height="6" fill="#4A5568" rx="2"/>
  <rect x="168" y="32" width="24" height="6" fill="#E63946" rx="2"/>
  <rect x="200" y="32" width="24" height="6" fill="#4A5568" rx="2"/>

  <!-- Widget 1: Mini chart (top-left) -->
  <rect x="30" y="50" width="160" height="80" fill="#1A1A1A" rx="4"/>
  <rect x="36" y="54" width="50" height="5" fill="#4A5568" rx="2"/>
  <path d="M 38 110 L 58 95 L 78 100 L 98 80 L 118 85 L 138 70 L 158 75 L 178 60"
        stroke="#E63946" stroke-width="2" fill="none"/>
  <path d="M 38 110 L 58 95 L 78 100 L 98 80 L 118 85 L 138 70 L 158 75 L 178 60 L 178 120 L 38 120 Z"
        fill="#E63946" opacity="0.1"/>

  <!-- Widget 2: Fear & Greed gauge (top-right) -->
  <rect x="200" y="50" width="170" height="80" fill="#1A1A1A" rx="4"/>
  <rect x="206" y="54" width="60" height="5" fill="#4A5568" rx="2"/>
  <path d="M 250 115 A 35 35 0 0 1 320 115" fill="none" stroke="#3A3A3A" stroke-width="6" stroke-linecap="round"/>
  <path d="M 250 115 A 35 35 0 0 1 285 80" fill="none" stroke="#E63946" stroke-width="6" stroke-linecap="round" opacity="0.4"/>
  <path d="M 285 80 A 35 35 0 0 1 310 95" fill="none" stroke="#FFA000" stroke-width="6" stroke-linecap="round" opacity="0.4"/>
  <path d="M 310 95 A 35 35 0 0 1 320 115" fill="none" stroke="#4A5568" stroke-width="6" stroke-linecap="round" opacity="0.4"/>
  <line x1="285" y1="115" x2="285" y2="88" stroke="#E63946" stroke-width="2" stroke-linecap="round"/>
  <circle cx="285" cy="115" r="3" fill="#E63946"/>

  <!-- Widget 3: Heatmap blocks (bottom-left) -->
  <rect x="30" y="140" width="160" height="80" fill="#1A1A1A" rx="4"/>
  <rect x="36" y="144" width="40" height="5" fill="#4A5568" rx="2"/>
  <rect x="36" y="155" width="50" height="25" fill="#4A5568" opacity="0.4" rx="2"/>
  <rect x="90" y="155" width="35" height="25" fill="#4A5568" opacity="0.25" rx="2"/>
  <rect x="129" y="155" width="25" height="25" fill="#E63946" opacity="0.3" rx="2"/>
  <rect x="158" y="155" width="25" height="25" fill="#4A5568" opacity="0.5" rx="2"/>
  <rect x="36" y="184" width="30" height="20" fill="#E63946" opacity="0.4" rx="2"/>
  <rect x="70" y="184" width="40" height="20" fill="#4A5568" opacity="0.3" rx="2"/>
  <rect x="114" y="184" width="35" height="20" fill="#E63946" opacity="0.25" rx="2"/>
  <rect x="153" y="184" width="30" height="20" fill="#4A5568" opacity="0.35" rx="2"/>

  <!-- Widget 4: News/feed lines (bottom-right) -->
  <rect x="200" y="140" width="170" height="80" fill="#1A1A1A" rx="4"/>
  <rect x="206" y="144" width="50" height="5" fill="#4A5568" rx="2"/>
  <rect x="206" y="156" width="150" height="4" fill="#4A5568" rx="2"/>
  <rect x="206" y="166" width="130" height="4" fill="#4A5568" rx="2"/>
  <rect x="206" y="176" width="145" height="4" fill="#4A5568" rx="2"/>
  <rect x="206" y="186" width="120" height="4" fill="#4A5568" rx="2"/>
  <rect x="206" y="196" width="140" height="4" fill="#4A5568" rx="2"/>
  <circle cx="360" y="160" r="3" fill="#E63946"/>
  <circle cx="360" y="170" r="3" fill="#4A5568"/>
  <circle cx="360" y="180" r="3" fill="#E63946"/>
  <circle cx="360" y="190" r="3" fill="#4A5568"/>

  <!-- Center overlay icon -->
  <circle cx="200" cy="125" r="22" fill="#E63946" opacity="0.15"/>
  <path d="M 191 130 L 195 120 L 199 125 L 203 115 L 207 122 L 211 112" stroke="#E63946" stroke-width="2.5" stroke-linecap="round" stroke-linejoin="round" fill="none"/>
</svg>
