<svg xmlns="http://www.w3.org/2000/svg" viewBox="0 0 400 250" fill="none">
  <rect width="400" height="250" fill="#1A1A1A"/>
  <rect x="20" y="20" width="360" height="210" fill="#2A2A2A" rx="8"/>
  
  <!-- Neural network nodes -->
  <circle cx="100" cy="80" r="15" fill="#E63946" opacity="0.3"/>
  <circle cx="100" cy="125" r="15" fill="#E63946" opacity="0.3"/>
  <circle cx="100" cy="170" r="15" fill="#E63946" opacity="0.3"/>
  
  <circle cx="200" cy="65" r="15" fill="#E63946" opacity="0.5"/>
  <circle cx="200" cy="110" r="15" fill="#E63946" opacity="0.5"/>
  <circle cx="200" cy="155" r="15" fill="#E63946" opacity="0.5"/>
  <circle cx="200" cy="185" r="15" fill="#E63946" opacity="0.5"/>
  
  <circle cx="300" cy="95" r="15" fill="#E63946"/>
  <circle cx="300" cy="140" r="15" fill="#E63946"/>
  
  <!-- Connection lines -->
  <line x1="115" y1="80" x2="185" y2="65" stroke="#E63946" stroke-width="1" opacity="0.3"/>
  <line x1="115" y1="80" x2="185" y2="110" stroke="#E63946" stroke-width="1" opacity="0.3"/>
  <line x1="115" y1="125" x2="185" y2="110" stroke="#E63946" stroke-width="1" opacity="0.3"/>
  <line x1="115" y1="125" x2="185" y2="155" stroke="#E63946" stroke-width="1" opacity="0.3"/>
  <line x1="115" y1="170" x2="185" y2="155" stroke="#E63946" stroke-width="1" opacity="0.3"/>
  <line x1="115" y1="170" x2="185" y2="185" stroke="#E63946" stroke-width="1" opacity="0.3"/>
  
  <line x1="215" y1="65" x2="285" y2="95" stroke="#E63946" stroke-width="2" opacity="0.5"/>
  <line x1="215" y1="110" x2="285" y2="95" stroke="#E63946" stroke-width="2" opacity="0.5"/>
  <line x1="215" y1="155" x2="285" y2="140" stroke="#E63946" stroke-width="2" opacity="0.5"/>
  <line x1="215" y1="185" x2="285" y2="140" stroke="#E63946" stroke-width="2" opacity="0.5"/>
  
  <!-- Brain icon overlay -->
  <circle cx="200" cy="125" r="35" fill="#E63946" opacity="0.1"/>
</svg>
