<svg xmlns="http://www.w3.org/2000/svg" viewBox="0 0 400 250" fill="none">
  <rect width="400" height="250" fill="#1A1A1A"/>
  <rect x="20" y="20" width="360" height="210" fill="#2A2A2A" rx="8"/>
  
  <!-- Document lines -->
  <rect x="60" y="50" width="280" height="8" fill="#4A5568" rx="4"/>
  <rect x="60" y="70" width="250" height="8" fill="#4A5568" rx="4"/>
  <rect x="60" y="90" width="270" height="8" fill="#4A5568" rx="4"/>
  <rect x="60" y="110" width="240" height="8" fill="#4A5568" rx="4"/>
  
  <!-- Highlighted section -->
  <rect x="60" y="140" width="280" height="60" fill="#E63946" opacity="0.1" rx="4"/>
  <rect x="70" y="150" width="200" height="6" fill="#E63946" rx="3"/>
  <rect x="70" y="165" width="180" height="6" fill="#E63946" rx="3"/>
  <rect x="70" y="180" width="160" height="6" fill="#E63946" rx="3"/>
  
  <!-- Icon -->
  <circle cx="200" cy="125" r="25" fill="#E63946" opacity="0.2"/>
  <rect x="190" y="115" width="20" height="24" stroke="#E63946" stroke-width="2" fill="none" rx="2"/>
  <line x1="194" y1="121" x2="206" y2="121" stroke="#E63946" stroke-width="2"/>
  <line x1="194" y1="127" x2="206" y2="127" stroke="#E63946" stroke-width="2"/>
  <line x1="194" y1="133" x2="206" y2="133" stroke="#E63946" stroke-width="2"/>
</svg>
