<svg xmlns="http://www.w3.org/2000/svg" viewBox="0 0 400 250" fill="none">
  <rect width="400" height="250" fill="#1A1A1A"/>
  <rect x="20" y="20" width="360" height="210" fill="#2A2A2A" rx="8"/>
  
  <!-- Chart lines -->
  <path d="M 40 180 L 80 140 L 120 160 L 160 100 L 200 120 L 240 80 L 280 90 L 320 60 L 360 70" 
        stroke="#E63946" stroke-width="3" fill="none"/>
  <path d="M 40 200 L 80 190 L 120 195 L 160 180 L 200 185 L 240 170 L 280 175 L 320 160 L 360 165" 
        stroke="#4A5568" stroke-width="2" fill="none" opacity="0.5"/>
  
  <!-- Grid -->
  <line x1="40" y1="60" x2="360" y2="60" stroke="#3A3A3A" stroke-width="1"/>
  <line x1="40" y1="100" x2="360" y2="100" stroke="#3A3A3A" stroke-width="1"/>
  <line x1="40" y1="140" x2="360" y2="140" stroke="#3A3A3A" stroke-width="1"/>
  <line x1="40" y1="180" x2="360" y2="180" stroke="#3A3A3A" stroke-width="1"/>
  
  <!-- Icon -->
  <circle cx="200" cy="125" r="30" fill="#E63946" opacity="0.2"/>
  <path d="M 185 135 L 200 115 L 215 135" stroke="#E63946" stroke-width="4" stroke-linecap="round" stroke-linejoin="round" fill="none"/>
</svg>
