<svg xmlns="http://www.w3.org/2000/svg" viewBox="0 0 400 250" fill="none">
  <rect width="400" height="250" fill="#1A1A1A"/>
  <rect x="20" y="20" width="360" height="210" fill="#2A2A2A" rx="8"/>
  
  <!-- Chat bubbles -->
  <rect x="60" y="60" width="150" height="40" fill="#3A3A3A" rx="8"/>
  <rect x="190" y="110" width="150" height="40" fill="#E63946" opacity="0.3" rx="8"/>
  <rect x="60" y="160" width="150" height="40" fill="#3A3A3A" rx="8"/>
  
  <!-- Message lines -->
  <rect x="70" y="70" width="100" height="4" fill="#6A6A6A" rx="2"/>
  <rect x="70" y="80" width="80" height="4" fill="#6A6A6A" rx="2"/>
  <rect x="200" y="120" width="100" height="4" fill="#E63946" rx="2"/>
  <rect x="200" y="130" width="80" height="4" fill="#E63946" rx="2"/>
  <rect x="70" y="170" width="100" height="4" fill="#6A6A6A" rx="2"/>
  <rect x="70" y="180" width="80" height="4" fill="#6A6A6A" rx="2"/>
  
  <!-- Encryption icon -->
  <circle cx="330" cy="125" r="25" fill="#E63946" opacity="0.2"/>
  <path d="M 320 125 L 325 130 L 340 115" stroke="#E63946" stroke-width="3" stroke-linecap="round" stroke-linejoin="round" fill="none"/>
</svg>
